# xmcd
#
# Track frame offsets: 
#        150
#        11806
#        33536
#        48276
#        71915
#        95945
#        113032
#        126351
#        159109
#        179403
#
# Disc length: 3031 seconds
#
# Revision: 0
# Processed by: cddbd v1.4PL0 Copyright (c) Steve Scherf et al.
# Submitted via: ExactAudioCopy v0.90b4
#
DISCID=8a0bd50a
DTITLE=Reverend Rusty and The Case - Live!
DYEAR=1999
DGENRE=Blues
TTITLE0=One more Shot
TTITLE1=I Ain't Superstitious
TTITLE2=Riot In Cell Block #9
TTITLE3=The Sky is Crying
TTITLE4=Talk to me Baby
TTITLE5=Can't Judge A Book
TTITLE6=Rooster Blues
TTITLE7=Wait on Time
TTITLE8=Hidaway
TTITLE9=Boogie Men
EXTD=
EXTT0=
EXTT1=
EXTT2=
EXTT3=
EXTT4=
EXTT5=
EXTT6=
EXTT7=
EXTT8=
EXTT9=
PLAYORDER=
